<svg xmlns="http://www.w3.org/2000/svg" width="250" height="250" fill="none" xmlns:v="https://vecta.io/nano"><rect width="250" height="250" rx="20" fill="#4f46e5"/><path d="M180.93 112.765c0 6.12-1.53 11.73-4.59 16.83-2.89 5.1-6.885 9.18-11.985 12.24s-10.795 4.59-17.085 4.59h-46.92c-2.04 0-3.06 1.105-3.06 3.315v52.53c0 3.23-1.19 6.035-3.57 8.415-2.21 2.21-4.93 3.315-8.16 3.315h-6.885c-3.23 0-6.035-1.105-8.415-3.315-2.21-2.38-3.315-5.185-3.315-8.415V53.35c0-3.4 1.105-6.205 3.315-8.415 2.38-2.21 5.185-3.315 8.415-3.315h68.595c6.29 0 11.985 1.53 17.085 4.59s9.095 7.14 11.985 12.24c3.06 5.1 4.59 10.795 4.59 17.085v37.23zm-30.09 0v-37.23c0-2.38-1.19-3.57-3.57-3.57h-46.92c-2.04 0-3.06 1.105-3.06 3.315v37.485c0 2.21 1.02 3.315 3.06 3.315h46.92c2.38 0 3.57-1.105 3.57-3.315z" fill="#fff"/></svg>